<svg xmlns="http://www.w3.org/2000/svg" xmlns:xlink="http://www.w3.org/1999/xlink" width="500" zoomAndPan="magnify" viewBox="0 0 375 374.999991" height="500" preserveAspectRatio="xMidYMid meet" version="1.0"><defs><g/><clipPath id="d3a1609a02"><path d="M 359.917969 354.824219 L 375 354.824219 L 375 375 L 359.917969 375 Z M 359.917969 354.824219 " clip-rule="nonzero"/></clipPath></defs><g clip-path="url(#d3a1609a02)"><path fill="#000000" d="M 429.980469 354.824219 C 391.332031 354.824219 359.917969 386.234375 359.917969 424.886719 C 359.917969 463.539062 391.332031 494.949219 429.980469 494.949219 C 436.539062 494.949219 442.945312 494.003906 449.089844 492.261719 L 449.089844 479.972656 C 444.324219 484.574219 438.925781 487.523438 433.167969 488.332031 L 433.167969 463.105469 L 449.089844 463.105469 L 449.089844 456.734375 L 433.167969 456.734375 L 433.167969 428.070312 L 449.089844 428.070312 L 449.089844 421.703125 L 433.167969 421.703125 L 433.167969 393.039062 L 463.011719 393.039062 C 465.859375 401.261719 467.664062 410.617188 468.0625 420.621094 L 471.382812 423.742188 L 474.53125 426.679688 L 476.011719 428.070312 L 493.5625 428.070312 C 493.316406 432.9375 492.542969 437.714844 491.226562 442.339844 L 496.375 447.167969 C 498.777344 440.039062 500.046875 432.550781 500.046875 424.886719 C 500.046875 386.234375 468.632812 354.824219 429.980469 354.824219 Z M 426.796875 361.453125 L 426.796875 386.671875 L 399.539062 386.671875 C 400.734375 384.046875 402.003906 381.546875 403.410156 379.28125 C 409.765625 369.019531 417.964844 362.699219 426.796875 361.453125 Z M 433.167969 361.453125 C 444.324219 362.996094 454.117188 372.550781 460.484375 386.671875 L 433.167969 386.671875 Z M 453.867188 365.820312 C 464.691406 370.199219 473.996094 377.476562 480.898438 386.671875 L 467.304688 386.671875 C 463.820312 378.296875 459.230469 371.195312 453.867188 365.820312 Z M 405.859375 365.945312 C 402.988281 368.84375 400.324219 372.164062 398 375.921875 C 395.957031 379.21875 394.140625 382.828125 392.5625 386.671875 L 379.089844 386.671875 C 385.945312 377.550781 395.148438 370.324219 405.859375 365.945312 Z M 374.859375 393.039062 L 390.234375 393.039062 C 387.4375 401.722656 385.78125 411.425781 385.496094 421.703125 L 366.363281 421.703125 C 366.886719 411.277344 369.933594 401.550781 374.859375 393.039062 Z M 396.976562 393.039062 L 426.796875 393.039062 L 426.796875 421.703125 L 391.863281 421.703125 C 392.175781 411.277344 393.992188 401.523438 396.976562 393.039062 Z M 469.640625 393.039062 L 485.15625 393.039062 C 490.070312 401.550781 493.078125 411.289062 493.589844 421.703125 L 474.46875 421.703125 C 474.171875 411.414062 472.476562 401.710938 469.640625 393.039062 Z M 366.363281 428.070312 L 385.496094 428.070312 C 385.78125 438.347656 387.4375 448.050781 390.234375 456.734375 L 374.859375 456.734375 C 369.933594 448.226562 366.886719 438.496094 366.363281 428.070312 Z M 391.863281 428.070312 L 426.796875 428.070312 L 426.796875 456.734375 L 396.976562 456.734375 C 393.992188 448.25 392.175781 438.496094 391.863281 428.070312 Z M 461.679688 428.070312 C 459.988281 428.160156 458.644531 429.550781 458.644531 431.257812 L 458.644531 492.5625 C 458.644531 493.855469 459.414062 495.011719 460.609375 495.5 C 461.804688 495.996094 463.171875 495.722656 464.082031 494.8125 L 473.671875 485.210938 L 481.671875 502.652344 C 482.40625 504.242188 484.296875 504.941406 485.902344 504.207031 L 498.191406 498.582031 C 499.785156 497.847656 500.480469 495.957031 499.746094 494.355469 L 491.449219 476.242188 L 506.414062 476.242188 C 507.722656 476.242188 508.902344 475.445312 509.375 474.226562 C 509.859375 473.007812 509.550781 471.625 508.59375 470.730469 L 464.007812 428.929688 C 463.371094 428.34375 462.539062 428.035156 461.679688 428.070312 Z M 465.015625 438.609375 L 498.355469 469.871094 L 486.910156 469.871094 C 486.410156 469.871094 485.925781 469.984375 485.476562 470.207031 L 485.140625 470.382812 C 483.613281 471.152344 482.953125 472.992188 483.675781 474.546875 L 492.632812 494.105469 L 486.125 497.089844 L 477.554688 478.394531 C 477.128906 477.445312 476.246094 476.777344 475.226562 476.589844 C 474.195312 476.402344 473.148438 476.738281 472.414062 477.484375 L 465.015625 484.875 Z M 379.089844 463.105469 L 392.5625 463.105469 C 394.140625 466.949219 395.957031 470.554688 398 473.851562 C 400.324219 477.609375 402.988281 480.929688 405.859375 483.828125 C 395.148438 479.449219 385.945312 472.222656 379.089844 463.105469 Z M 399.539062 463.105469 L 426.796875 463.105469 L 426.796875 488.320312 C 417.964844 487.074219 409.765625 480.757812 403.410156 470.503906 C 402.003906 468.230469 400.734375 465.726562 399.539062 463.105469 Z M 399.539062 463.105469 " fill-opacity="1" fill-rule="nonzero"/></g><path stroke-linecap="butt" transform="matrix(1.861062, 0, 0, 1.859825, -141.741344, 43.726286)" fill-opacity="1" fill="#ffffff" fill-rule="nonzero" stroke-linejoin="miter" d="M 200.649454 65.179756 C 199.238969 67.620342 196.130445 68.449973 193.699877 67.049052 C 191.689096 65.889668 190.769762 63.570902 191.300793 61.420161 L 178.919168 54.279032 C 178.260102 55.230483 177.279899 55.940395 176.150671 56.270147 L 176.150671 72.390196 C 176.410939 72.459507 176.660712 72.560323 176.910486 72.66954 C 176.92098 72.659039 176.92098 72.680042 176.92098 72.680042 C 179.859491 73.429861 182.029791 76.099383 182.029791 79.270884 C 182.029791 83.040981 178.969542 86.099064 175.210347 86.099064 C 171.449054 86.099064 168.380409 83.040981 168.380409 79.270884 C 168.380409 77.239863 169.270358 75.420976 170.680843 74.190181 C 170.689239 74.160776 170.699733 74.150275 170.710228 74.150275 C 171.360898 73.320643 172.269738 72.690544 173.31081 72.390196 L 173.31081 56.270147 C 171.998975 55.900489 170.920122 55.009948 170.269451 53.850564 L 158.150194 60.850971 C 158.679126 62.98911 157.759792 65.309977 155.759505 66.46936 C 153.320541 67.870281 150.209918 67.04065 148.799433 64.610566 C 147.399442 62.16998 148.230621 59.059388 150.669585 57.650065 C 152.669871 56.490682 155.140319 56.849839 156.729214 58.389382 L 169.66076 50.920601 C 169.71953 50.309404 169.879049 49.729713 170.130922 49.200429 L 164.459596 45.930212 C 162.870701 47.459254 160.400253 47.820511 158.389472 46.669529 C 155.961003 45.260206 155.11933 42.149614 156.529815 39.709028 C 157.9403 37.281044 161.050924 36.440911 163.479393 37.850234 C 165.490174 39.009618 166.409508 41.330485 165.880576 43.470723 L 172.070339 47.039187 C 172.450246 46.810251 172.870033 46.619121 173.31081 46.499402 L 173.31081 41.389294 C 171.190885 40.780198 169.639771 38.828989 169.639771 36.510222 C 169.639771 33.689476 171.91082 31.419017 174.729691 31.419017 C 177.550661 31.419017 179.819611 33.689476 179.819611 36.510222 C 179.819611 38.828989 178.270596 40.780198 176.150671 41.389294 L 176.150671 46.499402 C 176.38995 46.570813 176.629228 46.659027 176.860111 46.759843 L 183.57041 42.891031 C 183.03938 40.740291 183.960813 38.429926 185.969494 37.270543 C 188.400063 35.859119 191.519082 36.690851 192.919072 39.129336 C 194.329558 41.569922 193.489983 44.680514 191.059415 46.079336 C 189.050733 47.249221 186.580285 46.879562 184.989291 45.35052 L 179.089182 48.759359 C 179.550948 49.51968 179.819611 50.420722 179.819611 51.388975 L 179.819611 51.519196 L 192.719673 58.960673 C 194.310667 57.440032 196.779016 57.070374 198.789797 58.229757 C 201.220365 59.63908 202.05994 62.749672 200.649454 65.179756 Z M 200.649454 65.179756 " stroke="#595a5a" stroke-width="1" stroke-opacity="1" stroke-miterlimit="4"/><g fill="#ffffff" fill-opacity="1"><g transform="translate(12.149843, 208.264995)"><g><path d="M 11.828125 -1.671875 L 11.828125 0 L 0.546875 0 L 0.546875 -1.671875 L 3.3125 -2.28125 L 16.484375 -30.84375 L 24.5 -30.84375 L 37.609375 -2.28125 L 40.4375 -1.671875 L 40.4375 0 L 23.9375 0 L 23.9375 -1.671875 L 28.21875 -2.28125 L 24.6875 -10.203125 L 10.46875 -10.203125 L 7.078125 -2.28125 Z M 17.703125 -26.234375 L 11.59375 -12.703125 L 23.640625 -12.703125 Z M 17.703125 -26.234375 "/></g></g></g><g fill="#ffffff" fill-opacity="1"><g transform="translate(52.995167, 208.264995)"><g><path d="M 28.921875 -15.28125 C 28.921875 -19.695312 27.941406 -22.929688 25.984375 -24.984375 C 24.035156 -27.046875 20.859375 -28.078125 16.453125 -28.078125 L 14.421875 -28.078125 L 14.421875 -2.59375 C 16.179688 -2.476562 17.78125 -2.421875 19.21875 -2.421875 C 21.613281 -2.421875 23.503906 -2.84375 24.890625 -3.6875 C 26.285156 -4.539062 27.304688 -5.875 27.953125 -7.6875 C 28.597656 -9.507812 28.921875 -12.039062 28.921875 -15.28125 Z M 18.59375 -30.59375 C 25.238281 -30.59375 30.144531 -29.347656 33.3125 -26.859375 C 36.488281 -24.367188 38.078125 -20.570312 38.078125 -15.46875 C 38.078125 -10.21875 36.554688 -6.3125 33.515625 -3.75 C 30.484375 -1.1875 25.894531 0.09375 19.75 0.09375 L 7.34375 0 L 1 0 L 1 -1.671875 L 5.75 -2.28125 L 5.75 -28.328125 L 1 -28.921875 L 1 -30.59375 Z M 18.59375 -30.59375 "/></g></g></g><g fill="#ffffff" fill-opacity="1"><g transform="translate(93.840491, 208.264995)"><g><path d="M 11.828125 -1.671875 L 11.828125 0 L 0.546875 0 L 0.546875 -1.671875 L 3.3125 -2.28125 L 16.484375 -30.84375 L 24.5 -30.84375 L 37.609375 -2.28125 L 40.4375 -1.671875 L 40.4375 0 L 23.9375 0 L 23.9375 -1.671875 L 28.21875 -2.28125 L 24.6875 -10.203125 L 10.46875 -10.203125 L 7.078125 -2.28125 Z M 17.703125 -26.234375 L 11.59375 -12.703125 L 23.640625 -12.703125 Z M 17.703125 -26.234375 "/></g></g></g><g fill="#ffffff" fill-opacity="1"><g transform="translate(134.685815, 208.264995)"><g><path d="M 3.015625 -9.375 L 5.4375 -9.375 L 6.6875 -4.46875 C 7.457031 -3.726562 8.625 -3.101562 10.1875 -2.59375 C 11.75 -2.09375 13.367188 -1.84375 15.046875 -1.84375 C 20.335938 -1.84375 22.984375 -3.640625 22.984375 -7.234375 C 22.984375 -8.359375 22.476562 -9.304688 21.46875 -10.078125 C 20.46875 -10.859375 18.890625 -11.550781 16.734375 -12.15625 C 13.566406 -13.019531 11.285156 -13.722656 9.890625 -14.265625 C 8.503906 -14.804688 7.332031 -15.441406 6.375 -16.171875 C 5.414062 -16.898438 4.648438 -17.785156 4.078125 -18.828125 C 3.515625 -19.867188 3.234375 -21.148438 3.234375 -22.671875 C 3.234375 -25.367188 4.34375 -27.421875 6.5625 -28.828125 C 8.78125 -30.234375 12.023438 -30.9375 16.296875 -30.9375 C 19.390625 -30.9375 22.8125 -30.609375 26.5625 -29.953125 L 26.5625 -22.671875 L 24.109375 -22.671875 L 22.875 -26.875 C 20.988281 -28 18.796875 -28.5625 16.296875 -28.5625 C 14.023438 -28.5625 12.28125 -28.210938 11.0625 -27.515625 C 9.851562 -26.828125 9.25 -25.769531 9.25 -24.34375 C 9.25 -23.320312 9.753906 -22.445312 10.765625 -21.71875 C 11.785156 -21 13.367188 -20.359375 15.515625 -19.796875 C 19.734375 -18.660156 22.628906 -17.671875 24.203125 -16.828125 C 25.773438 -15.984375 26.972656 -14.9375 27.796875 -13.6875 C 28.628906 -12.4375 29.046875 -10.96875 29.046875 -9.28125 C 29.046875 -2.789062 24.414062 0.453125 15.15625 0.453125 C 13.039062 0.453125 10.882812 0.300781 8.6875 0 C 6.488281 -0.289062 4.597656 -0.675781 3.015625 -1.15625 Z M 3.015625 -9.375 "/></g></g></g><g fill="#ffffff" fill-opacity="1"><g transform="translate(166.141411, 208.264995)"><g/></g></g><g fill="#ffffff" fill-opacity="1"><g transform="translate(180.281236, 208.264995)"><g><path d="M 14.421875 -13.046875 L 14.421875 -2.28125 L 20.578125 -1.671875 L 20.578125 0 L 1.328125 0 L 1.328125 -1.671875 L 5.71875 -2.28125 L 5.71875 -28.328125 L 0.96875 -28.921875 L 0.96875 -30.59375 L 31.84375 -30.59375 L 31.84375 -22.359375 L 29.25 -22.359375 L 28.359375 -27.765625 C 27.460938 -27.867188 25.972656 -27.945312 23.890625 -28 C 21.804688 -28.050781 20.164062 -28.078125 18.96875 -28.078125 L 14.421875 -28.078125 L 14.421875 -15.5625 L 23.453125 -15.5625 L 24.296875 -19.4375 L 26.765625 -19.4375 L 26.765625 -9.125 L 24.296875 -9.125 L 23.453125 -13.046875 Z M 14.421875 -13.046875 "/></g></g></g><g fill="#ffffff" fill-opacity="1"><g transform="translate(214.829919, 208.264995)"><g><path d="M 8.5625 0 L 8.5625 -1.671875 L 14.4375 -2.28125 L 14.4375 -28.171875 L 13.03125 -28.171875 C 8.820312 -28.171875 5.859375 -28.019531 4.140625 -27.71875 L 3.390625 -22.03125 L 0.890625 -22.03125 L 0.890625 -30.59375 L 36.875 -30.59375 L 36.875 -22.03125 L 34.328125 -22.03125 L 33.578125 -27.71875 C 32.054688 -27.988281 29.039062 -28.125 24.53125 -28.125 L 23.171875 -28.125 L 23.171875 -2.28125 L 29.046875 -1.671875 L 29.046875 0 Z M 8.5625 0 "/></g></g></g><g fill="#ffffff" fill-opacity="1"><g transform="translate(252.55452, 208.264995)"><g><path d="M 40.578125 -30.59375 L 40.578125 -28.921875 L 36.046875 -28.328125 L 23.8125 -19.40625 L 40.109375 -2.28125 L 43.546875 -1.671875 L 43.546875 0 L 31.453125 0 L 17.625 -14.734375 L 14.421875 -12.453125 L 14.421875 -2.28125 L 19.75 -1.671875 L 19.75 0 L 0.96875 0 L 0.96875 -1.671875 L 5.71875 -2.28125 L 5.71875 -28.328125 L 0.96875 -28.921875 L 0.96875 -30.59375 L 19.1875 -30.59375 L 19.1875 -28.921875 L 14.421875 -28.328125 L 14.421875 -15.875 L 31.296875 -28.328125 L 27.890625 -28.921875 L 27.890625 -30.59375 Z M 40.578125 -30.59375 "/></g></g></g><g fill="#ffffff" fill-opacity="1"><g transform="translate(296.548177, 208.264995)"><g><path d="M 23.140625 -2.78125 C 25.898438 -2.78125 28.035156 -3.414062 29.546875 -4.6875 C 31.054688 -5.96875 31.8125 -7.847656 31.8125 -10.328125 L 31.8125 -28.328125 L 26.84375 -28.921875 L 26.84375 -30.59375 L 39.4375 -30.59375 L 39.4375 -28.921875 L 35.234375 -28.328125 L 35.234375 -10.515625 C 35.234375 -6.984375 34 -4.273438 31.53125 -2.390625 C 29.070312 -0.503906 25.550781 0.4375 20.96875 0.4375 C 16.007812 0.4375 12.207031 -0.515625 9.5625 -2.421875 C 6.925781 -4.335938 5.609375 -7.097656 5.609375 -10.703125 L 5.609375 -28.328125 L 1.40625 -28.921875 L 1.40625 -30.59375 L 19.0625 -30.59375 L 19.0625 -28.921875 L 14.3125 -28.328125 L 14.3125 -10.375 C 14.3125 -7.925781 15.0625 -6.046875 16.5625 -4.734375 C 18.0625 -3.429688 20.253906 -2.78125 23.140625 -2.78125 Z M 23.140625 -2.78125 "/></g></g></g></svg>