<?xml version="1.0" encoding="UTF-8"?>
<svg id="Layer_1" xmlns="http://www.w3.org/2000/svg" viewBox="0 0 353.64 154.45">
  <defs>
    <style>
      .cls-1 {
        font-family: Tahoma-Bold, Tahoma;
        font-size: 25.12px;
        font-weight: 700;
      }

      .cls-1, .cls-2, .cls-3 {
        fill:rgb(255, 255, 255);
      }

      .cls-2 {
        stroke: #595a5a;
      }

      .cls-3 {
        opacity: 0;
        stroke: #231f20;
        stroke-miterlimit: 10;
      }
    </style>
  </defs>
  <path class="cls-3" d="M74.69,59.83c-3.19,7.21-4.92,14.94-4.92,22.98,0,8.86,2.1,17.35,5.94,25.17,8.64,17.63,26.09,31.9,48.21,39.64,11.59,4.06,24.47,6.32,38.03,6.32H.5V42.03c16.66-13.2,37.77-23.62,61.71-30.11,17.91-4.87,37.41-7.54,57.81-7.54,1.3,0,2.61,0,3.9.04,21.45.36,41.84,3.67,60.37,9.37-7.15-1.38-14.64-2.11-22.34-2.11-13.56,0-26.44,2.26-38.03,6.32-23.03,8.06-41,23.21-49.23,41.83Z"/>
  <path class="cls-3" d="M278.43,93.6c3.23-7.08,5-14.68,5.05-22.59.05-8.72-2.01-17.08-5.8-24.8-8.54-17.39-25.92-31.54-47.99-39.28-11.57-4.06-24.44-6.35-38-6.43l161.45.9-.61,110.13c-16.73,12.9-37.9,23.03-61.87,29.29-17.94,4.69-37.45,7.21-57.85,7.1-1.3,0-2.61-.02-3.9-.06-21.45-.47-41.82-3.84-60.32-9.55,7.14,1.4,14.63,2.16,22.33,2.2,13.56.08,26.45-2.08,38.06-6.01,23.07-7.81,41.13-22.61,49.46-40.89Z"/>
  <path class="cls-2" d="M200.65,65.18c-1.41,2.44-4.52,3.27-6.95,1.87-2.01-1.16-2.93-3.48-2.4-5.63l-12.38-7.14c-.66.95-1.64,1.66-2.77,1.99v16.12c.26.07.51.17.76.28.01-.01.01.01.01.01,2.94.75,5.11,3.42,5.11,6.59,0,3.77-3.06,6.83-6.82,6.83s-6.83-3.06-6.83-6.83c0-2.03.89-3.85,2.3-5.08.01-.03.02-.04.03-.04.65-.83,1.56-1.46,2.6-1.76v-16.12c-1.31-.37-2.39-1.26-3.04-2.42l-12.12,7c.53,2.14-.39,4.46-2.39,5.62-2.44,1.4-5.55.57-6.96-1.86-1.4-2.44-.57-5.55,1.87-6.96,2-1.16,4.47-.8,6.06.74l12.93-7.47c.06-.61.22-1.19.47-1.72l-5.67-3.27c-1.59,1.53-4.06,1.89-6.07.74-2.43-1.41-3.27-4.52-1.86-6.96,1.41-2.43,4.52-3.27,6.95-1.86,2.01,1.16,2.93,3.48,2.4,5.62l6.19,3.57c.38-.23.8-.42,1.24-.54v-5.11c-2.12-.61-3.67-2.56-3.67-4.88,0-2.82,2.27-5.09,5.09-5.09s5.09,2.27,5.09,5.09c0,2.32-1.55,4.27-3.67,4.88v5.11c.24.07.48.16.71.26l6.71-3.87c-.53-2.15.39-4.46,2.4-5.62,2.43-1.41,5.55-.58,6.95,1.86,1.41,2.44.57,5.55-1.86,6.95-2.01,1.17-4.48.8-6.07-.73l-5.9,3.41c.46.76.73,1.66.73,2.63v.13l12.9,7.44c1.59-1.52,4.06-1.89,6.07-.73,2.43,1.41,3.27,4.52,1.86,6.95Z"/>
  <text class="cls-1" transform="translate(82.69 88.47) scale(1.21 1)"><tspan x="0" y="0" xml:space="preserve">ADAS  FTKU</tspan></text>
</svg>